<svg width="349" height="135" fill="none" xmlns="http://www.w3.org/2000/svg"><g filter="url(#filter0_d_388_311)"><path d="M51.482 12.003h1v-1h-1v1zm0 107.997v1h1v-1h-1zm-10.415 0h-1v1h1v-1zm0-81.559h1v-1h-1v1zm-23.234 0h-1v1h1v-1zm0-8.492v-1h-1v1h1zm17.946-4.006l.581.814.005-.003-.586-.81zm7.37-13.94v-1H42.3l-.137.838.987.162zm7.333 0V120h2V12.003h-2zm1 106.997H41.067v2h10.415v-2zm-9.415 1V38.441h-2V120h2zm-1-82.559H17.833v2h23.234v-2zm-22.234 1V29.95h-2v8.492h2zm-1-7.492c8.29 0 14.53-1.337 18.527-4.192l-1.162-1.628c-3.48 2.487-9.204 3.82-17.365 3.82v2zm18.532-4.195c4.132-2.985 6.678-7.916 7.772-14.59l-1.974-.323c-1.042 6.36-3.41 10.721-6.97 13.291l1.172 1.622zm6.785-13.751h8.332v-2H43.15v2zm63.123 101.389l-.678.735.678-.735zm-9.934-21.311v-1h-1.125l.131 1.117.994-.117zm10.895 0l.984-.18-.149-.82h-.835v1zm41.341 8.172l-.84-.544-.002.003.842.541zm7.851-33.97l1 .022.022-1.022h-1.022v1zm-.32 0v-1h-.548l-.295.462.843.538zm-52.076 5.288l-.731.683.006.006.006.006.719-.695zm.48-52.396l.719.695.005-.005-.724-.69zm52.557 2.724l-.813.582.005.006.808-.588zm-.641 83.641l-.839-.544-.004.006.843.538zm-9.133-40.859l-.731-.683.731.683zm.32-38.616l-.761.648.007.009.008.008.746-.665zm-35.251 0l-.746-.667-.001.001.747.666zm0 38.616l.739-.674-.739.674zm15.863 55.402c-8.882 0-15.939-2.502-21.274-7.426l-1.356 1.47c5.775 5.331 13.352 7.956 22.63 7.956v-2zm-21.274-7.426c-5.344-4.933-8.573-11.798-9.62-20.693l-1.986.234c1.09 9.265 4.485 16.607 10.25 21.929l1.356-1.47zM96.339 94.081h10.895v-2H96.339v2zm9.912-.821c1.199 6.598 3.621 11.674 7.358 15.099 3.749 3.437 8.711 5.11 14.776 5.11v-2c-5.685 0-10.124-1.558-13.425-4.584-3.313-3.038-5.591-7.656-6.742-13.983l-1.967.358zm22.134 20.209c9.004 0 16.046-3.921 21.031-11.676l-1.683-1.081c-4.629 7.201-11.047 10.757-19.348 10.757v2zm21.029-11.673c5.061-7.812 7.69-19.354 8.012-34.491l-2-.043c-.319 14.987-2.925 26.09-7.691 33.447l1.679 1.087zm7.012-35.513h-.32v2h.32v-2zm-1.163.462c-6.225 9.752-15.093 14.6-26.718 14.6v2c12.304 0 21.809-5.193 28.403-15.524l-1.685-1.076zm-26.718 14.6c-9.802 0-17.704-3.17-23.796-9.47l-1.438 1.391c6.512 6.733 14.954 10.08 25.234 10.08v-2zm-23.785-9.457c-5.994-6.407-9.024-14.748-9.024-25.115h-2c0 10.784 3.166 19.642 9.563 26.481l1.461-1.366zm-9.024-25.115c0-10.791 3.188-19.392 9.493-25.903l-1.437-1.39c-6.728 6.948-10.056 16.08-10.056 27.293h2zm9.498-25.908c6.306-6.616 14.526-9.945 24.754-9.945v-2c-10.71 0-19.475 3.508-26.201 10.565l1.447 1.38zm24.754-9.945c11.577 0 20.282 4.203 26.266 12.56l1.626-1.163c-6.407-8.948-15.755-13.397-27.892-13.397v2zm26.271 12.568c6.123 8.406 9.262 21.03 9.262 38.027h2c0-17.187-3.164-30.307-9.646-39.205l-1.616 1.178zm9.262 38.027c0 19.566-3.354 34.35-9.934 44.481l1.678 1.089c6.88-10.593 10.256-25.826 10.256-45.57h-2zm-9.938 44.487c-6.441 10.078-15.526 15.081-27.358 15.081v2c12.523 0 22.239-5.358 29.044-16.004l-1.686-1.077zm-25.756-32.11c7.407 0 13.503-2.5 18.197-7.529L146.562 65c-4.28 4.585-9.827 6.892-16.735 6.892v2zm18.196-7.528c4.789-5.123 7.16-11.627 7.16-19.43h-2c0 7.365-2.223 13.36-6.621 18.064l1.461 1.366zm7.16-19.43c0-8.51-2.24-15.393-6.823-20.535l-1.493 1.331c4.176 4.686 6.316 11.05 6.316 19.204h2zm-6.808-20.517c-4.49-5.276-10.661-7.883-18.387-7.883v2c7.228 0 12.808 2.413 16.864 7.179l1.523-1.296zm-18.387-7.883c-7.524 0-13.679 2.613-18.372 7.864l1.492 1.333c4.28-4.79 9.875-7.197 16.88-7.197v-2zm-18.373 7.865c-4.58 5.14-6.823 11.967-6.823 20.374h2c0-8.043 2.138-14.355 6.316-19.043l-1.493-1.33zm-6.823 20.374c0 7.995 2.251 14.555 6.831 19.581l1.478-1.347c-4.18-4.587-6.309-10.632-6.309-18.234h-2zm6.831 19.581c4.592 5.041 10.696 7.537 18.204 7.537v-2c-7.019 0-12.559-2.31-16.726-6.884l-1.478 1.347zm82.129-48.102l.654.757.001-.001-.655-.756zm48.871 0l-.661.75.006.006.007.006.648-.762zm-8.973 45.666l-.389-.92-.611.257v.663h1zm0 .32h-1v.716l.677.231.323-.946zm10.575 49.192l.651.76.007-.006-.658-.754zm-52.076 0l-.657.755.006.005.651-.76zm10.576-49.191l.325.945.675-.231v-.714h-1zm0-.32h1v-.661l-.608-.26-.392.92zm33.649 11.216l-.654.757.01.008.644-.765zm-36.213 0l.644.765.01-.009-.654-.756zm-.16 31.245l-.653.758.653-.758zm36.373 0l.652.758.001-.001-.653-.757zm-34.931-81.398l-.648-.762.648.762zm-.16 29.162l-.668.744.01.01.01.008.648-.762zm33.809 0l.657.754.005-.005.006-.005-.668-.744zm-.16-29.162l.647-.762-.647.762zm-40.525-5.974c6.197-5.371 14.123-8.088 23.86-8.088v-2c-10.131 0-18.549 2.838-25.17 8.576l1.31 1.512zm23.86-8.088c9.738 0 17.607 2.717 23.695 8.082l1.322-1.5c-6.518-5.744-14.886-8.582-25.017-8.582v2zm23.708 8.094c6.179 5.252 9.262 12.02 9.262 20.389h2c0-8.937-3.327-16.269-9.967-21.913l-1.295 1.524zm9.262 20.389c0 5.356-1.489 9.96-4.444 13.857-2.964 3.909-7.449 7.168-13.532 9.737l.778 1.843c6.308-2.665 11.116-6.11 14.348-10.372 3.241-4.275 4.85-9.312 4.85-15.065h-2zM232.65 63.918v.32h2v-.32h-2zm.677 1.267c6.761 2.306 11.743 5.591 15.037 9.805 3.287 4.204 4.956 9.412 4.956 15.687h2c0-6.65-1.777-12.31-5.38-16.92-3.596-4.599-8.948-8.07-15.968-10.465l-.645 1.893zm19.993 25.492c0 9.018-3.25 16.323-9.753 22l1.316 1.507c6.957-6.074 10.437-13.938 10.437-23.507h-2zm-9.746 21.994c-6.515 5.584-14.922 8.412-25.307 8.412v2c10.766 0 19.664-2.941 26.609-8.893l-1.302-1.519zm-25.307 8.412c-10.494 0-18.954-2.829-25.467-8.412l-1.302 1.519c6.947 5.954 15.9 8.893 26.769 8.893v-2zm-25.461-8.407c-6.388-5.564-9.591-12.865-9.591-21.999h-2c0 9.667 3.42 17.535 10.277 23.508l1.314-1.509zm-9.591-21.999c0-6.277 1.656-11.486 4.917-15.69 3.269-4.213 8.211-7.497 14.918-9.802l-.65-1.892c-6.967 2.395-12.28 5.868-15.848 10.468-3.575 4.608-5.337 10.268-5.337 16.916h2zm20.51-26.438v-.32h-2v.32h2zm-.608-1.24c-6.029-2.57-10.475-5.827-13.413-9.736-2.93-3.898-4.406-8.502-4.406-13.86h-2c0 5.751 1.594 10.787 4.807 15.062 3.204 4.262 7.972 7.708 14.228 10.373l.784-1.84zm-17.819-23.596c0-8.375 3.034-15.145 9.108-20.394l-1.308-1.514c-6.532 5.646-9.8 12.977-9.8 21.908h2zm51.729 34.975c-4.914-4.245-11.196-6.332-18.76-6.332v2c7.178 0 12.967 1.971 17.453 5.845l1.307-1.513zm-18.76-6.332c-7.563 0-13.845 2.087-18.76 6.332l1.308 1.513c4.485-3.874 10.274-5.845 17.452-5.845v-2zm-18.75 6.323c-4.928 4.145-7.406 9.5-7.406 15.988h2c0-5.904 2.222-10.697 6.694-14.457l-1.288-1.53zm-7.406 15.988c0 6.985 2.397 12.616 7.237 16.781l1.305-1.516c-4.347-3.74-6.542-8.79-6.542-15.265h-2zm7.237 16.781c4.817 4.145 11.158 6.171 18.919 6.171v-2c-7.407 0-13.244-1.927-17.614-5.687l-1.305 1.516zm18.919 6.171c7.659 0 13.944-2.028 18.759-6.171l-1.305-1.516c-4.372 3.762-10.157 5.687-17.454 5.687v2zm18.76-6.172c4.936-4.263 7.397-9.888 7.397-16.78h-2c0 6.354-2.24 11.411-6.704 15.266l1.307 1.514zm7.397-16.78c0-6.488-2.478-11.843-7.407-15.988L235.73 75.9c4.472 3.76 6.694 8.553 6.694 14.457h2zm-26.157-71.823c-7.122 0-12.978 1.866-17.472 5.686l1.295 1.524c4.052-3.445 9.413-5.21 16.177-5.21v-2zm-17.472 5.686c-4.513 3.836-6.762 8.93-6.762 15.183h2c0-5.711 2.025-10.231 6.057-13.66l-1.295-1.523zm-6.762 15.183c0 6.345 2.184 11.54 6.582 15.485l1.335-1.488c-3.934-3.531-5.917-8.164-5.917-13.997h-2zm6.602 15.503c4.496 3.822 10.408 5.686 17.632 5.686v-2c-6.876 0-12.287-1.768-16.337-5.21l-1.295 1.524zm17.632 5.686c7.224 0 13.088-1.864 17.482-5.694l-1.314-1.508c-3.939 3.434-9.291 5.202-16.168 5.202v2zm17.493-5.704c4.397-3.946 6.581-9.14 6.581-15.485h-2c0 5.833-1.982 10.466-5.917 13.997l1.336 1.488zm6.581-15.485c0-6.253-2.249-11.347-6.762-15.183l-1.295 1.524c4.033 3.428 6.057 7.948 6.057 13.659h2zm-6.762-15.183c-4.491-3.818-10.292-5.686-17.312-5.686v2c6.654 0 11.962 1.763 16.017 5.21l1.295-1.524zm33.153-12.217v-1h-1v1h1zm71.784 0h1v-1h-1v1zm0 9.614l.822.57.178-.257v-.313h-1zM300.138 120v1h.815l.164-.799-.979-.201zm-11.858 0l-.973-.231-.291 1.231h1.264v-1zm40.86-98.543l.83.557 1.045-1.557h-1.875v1zm-60.408 0h-1v1h1v-1zm0-8.454h71.784v-2h-71.784v2zm70.784-1v9.614h2v-9.614h-2zm.179 9.044c-19.21 27.687-32.716 60.612-40.537 98.752l1.959.402c7.775-37.917 21.188-70.581 40.221-98.014l-1.643-1.14zM300.138 119H288.28v2h11.858v-2zm-10.885 1.231c9.166-38.686 22.744-71.417 40.717-98.217l-1.661-1.114c-18.133 27.038-31.793 60.002-41.002 98.869l1.946.462zm39.887-99.774h-60.408v2h60.408v-2zm-59.408 1v-9.454h-2v9.454h2z" fill="#2D2D2D"/></g><mask id="a" style="mask-type:alpha" maskUnits="userSpaceOnUse" x="0" y="5" width="148" height="130"><path fill="#FCFCFC" d="M.977 5.525h146.42v128.923H.977z"/></mask><g mask="url(#a)"><path d="M51.482 12.003V120H41.067V38.441H17.833V29.95c8.225 0 14.207-1.335 17.946-4.006 3.846-2.777 6.303-7.424 7.37-13.94h8.333zm76.743 110.08c-9.08 0-16.397-2.564-21.952-7.691-5.555-5.128-8.866-12.231-9.934-21.311h10.895c2.351 12.925 9.401 19.388 21.151 19.388 8.653 0 15.383-3.739 20.19-11.216 4.913-7.585 7.531-18.908 7.851-33.97h-.32c-6.41 10.042-15.596 15.062-27.561 15.062-10.041 0-18.213-3.258-24.515-9.774-6.196-6.623-9.294-15.222-9.294-25.798 0-11.002 3.258-19.869 9.774-26.598 6.517-6.837 15.009-10.255 25.478-10.255 11.857 0 20.883 4.326 27.079 12.979 6.302 8.652 9.454 21.524 9.454 38.616 0 19.655-3.365 34.664-10.095 45.025-6.623 10.362-16.023 15.543-28.201 15.543zm1.602-49.192c7.157 0 12.979-2.403 17.466-7.21 4.593-4.914 6.89-11.163 6.89-18.747 0-8.332-2.19-14.955-6.57-19.87-4.273-5.02-10.148-7.53-17.625-7.53-7.264 0-13.14 2.51-17.626 7.53-4.38 4.915-6.57 11.484-6.57 19.71 0 7.797 2.19 14.1 6.57 18.907 4.38 4.807 10.201 7.21 17.465 7.21zm63.925-54.64c6.409-5.554 14.581-8.331 24.515-8.331 9.935 0 18.053 2.777 24.356 8.332 6.409 5.448 9.614 12.498 9.614 21.15 0 11.11-6.196 19.282-18.587 24.516v.32c13.78 4.701 20.67 13.514 20.67 26.44 0 9.293-3.365 16.877-10.095 22.752-6.73 5.769-15.382 8.653-25.958 8.653-10.682 0-19.388-2.884-26.118-8.653-6.623-5.768-9.934-13.352-9.934-22.753 0-12.925 6.836-21.738 20.51-26.438v-.32c-12.285-5.235-18.427-13.407-18.427-24.516 0-8.653 3.151-15.703 9.454-21.151zm42.622 56.884c-4.701-4.06-10.736-6.09-18.107-6.09-7.37 0-13.406 2.03-18.106 6.09-4.7 3.952-7.05 9.026-7.05 15.222 0 6.73 2.296 12.071 6.89 16.023 4.593 3.953 10.682 5.929 18.266 5.929 7.478 0 13.513-1.976 18.107-5.929 4.7-4.059 7.05-9.4 7.05-16.023 0-6.196-2.35-11.27-7.05-15.222zm-18.107-55.601c-6.943 0-12.551 1.816-16.824 5.448-4.273 3.632-6.41 8.439-6.41 14.42 0 6.09 2.083 11.003 6.25 14.742 4.272 3.632 9.934 5.448 16.984 5.448 7.051 0 12.659-1.816 16.825-5.448 4.166-3.739 6.249-8.652 6.249-14.741 0-5.982-2.137-10.79-6.409-14.421-4.273-3.632-9.828-5.448-16.665-5.448zm50.465-7.531h71.784v9.614c-19.121 27.56-32.58 60.354-40.378 98.383H288.28c9.187-38.776 22.807-71.624 40.86-98.543h-60.408v-9.454z" fill="#FCFCFC"/></g><defs><filter id="filter0_d_388_311" x="14.15" y="9.92" width="330.049" height="119.53" filterUnits="userSpaceOnUse" color-interpolation-filters="sRGB"><feFlood flood-opacity="0" result="BackgroundImageFix"/><feColorMatrix in="SourceAlpha" values="0 0 0 0 0 0 0 0 0 0 0 0 0 0 0 0 0 0 127 0" result="hardAlpha"/><feOffset dy="3.684"/><feGaussianBlur stdDeviation="1.842"/><feComposite in2="hardAlpha" operator="out"/><feColorMatrix values="0 0 0 0 0 0 0 0 0 0 0 0 0 0 0 0 0 0 0.25 0"/><feBlend in2="BackgroundImageFix" result="effect1_dropShadow_388_311"/><feBlend in="SourceGraphic" in2="effect1_dropShadow_388_311" result="shape"/></filter></defs></svg>