<svg width="1223" height="191" fill="none" xmlns="http://www.w3.org/2000/svg"><path d="M82.279.888c21.845 0 39.424 6.144 52.736 18.432 13.312 12.288 20.395 28.245 21.248 47.872h-30.976c-1.365-12.117-5.888-21.59-13.568-28.416-7.509-6.997-17.323-10.496-29.44-10.496-15.53 0-27.733 6.059-36.608 18.176-8.875 11.947-13.312 28.416-13.312 49.408s4.352 37.547 13.056 49.664c8.875 11.947 20.907 17.92 36.096 17.92 12.117 0 22.016-3.499 29.696-10.496 7.851-6.997 12.629-16.725 14.336-29.184h31.488c-1.877 20.992-9.472 37.461-22.784 49.408-13.312 11.776-30.891 17.664-52.736 17.664-25.088 0-44.885-8.448-59.392-25.344C7.783 148.6.615 125.389.615 95.864c0-29.525 7.253-52.736 21.76-69.632C37.052 9.336 57.02.888 82.279.888zm243.144 3.84V187h-30.72V31.352h-58.368c-1.365 44.203-4.267 77.568-8.704 100.096-4.267 22.528-10.24 37.632-17.92 45.312-7.509 7.68-18.347 11.52-32.512 11.52-4.779 0-8.448-.427-11.008-1.28v-25.344c1.707.341 3.243.512 4.608.512 5.461 0 9.899-1.195 13.312-3.584 3.413-2.389 6.485-6.656 9.216-12.8 2.901-6.144 5.12-15.275 6.656-27.392 1.707-12.288 3.072-27.392 4.096-45.312 1.195-17.92 2.133-40.704 2.816-68.352h118.528zm153.644 0h33.28l-71.68 146.944c-6.656 13.483-14.165 23.125-22.528 28.928-8.363 5.632-18.176 8.448-29.44 8.448-8.021 0-14.336-.683-18.944-2.048v-25.856c3.413 1.024 7.595 1.536 12.544 1.536 6.997 0 12.715-1.621 17.152-4.864 4.608-3.413 8.533-9.045 11.776-16.896L343.643 4.728h33.28l25.6 55.552c7.851 17.237 16.299 36.096 25.344 56.576h.512c11.776-26.965 20.224-45.739 25.344-56.32l25.344-55.808zm267.424 0V187H529.403V4.728h30.72v155.648h62.72V4.728h30.464v155.648h62.72V4.728h30.464zM906.717 187l-16.896-49.408h-75.52L797.405 187h-32.256L831.453 4.728h41.216L938.973 187h-32.256zm-83.2-76.032h57.088l-4.864-14.336c-10.24-30.379-18.091-54.528-23.552-72.448h-.512c-9.045 29.696-16.811 53.845-23.296 72.448l-4.864 14.336zM1070.71 4.728v26.624h-59.91V187h-30.461V31.352h-59.904V4.728h150.275zM1157.7 187h-65.8V4.728h30.72V73.08h35.08c20.99 0 37.12 5.12 48.38 15.36 11.26 10.24 16.9 24.149 16.9 41.728 0 17.408-5.64 31.232-16.9 41.472-11.26 10.24-27.39 15.36-48.38 15.36zm-35.08-88.064v62.208h31.49c24.92 0 37.38-10.325 37.38-30.976 0-20.821-12.46-31.232-37.38-31.232h-31.49z" fill="#FCFCFC"/></svg>