<svg width="24" height="24" fill="none" xmlns="http://www.w3.org/2000/svg"><path d="M22.101 5.892a8.063 8.063 0 01-2.312.634 4.036 4.036 0 001.77-2.228 8 8 0 01-2.556.976 4.028 4.028 0 00-6.861 3.674A11.433 11.433 0 013.843 4.74a4.028 4.028 0 001.246 5.376 4.016 4.016 0 01-1.823-.504v.052a4.028 4.028 0 003.23 3.948 4.056 4.056 0 01-1.819.07 4.029 4.029 0 003.761 2.795 8.08 8.08 0 01-5 1.724 8.21 8.21 0 01-.961-.056 11.387 11.387 0 006.17 1.809c7.408 0 11.457-6.135 11.457-11.456 0-.173-.004-.347-.012-.52A8.186 8.186 0 0022.1 5.895l.001-.003z" fill="#FCFCFC"/></svg>