<svg width="24" height="24" fill="none" xmlns="http://www.w3.org/2000/svg"><path d="M12.072 3.7h.122c1.13.004 6.858.046 8.402.46a2.764 2.764 0 011.946 1.954c.14.522.237 1.214.303 1.928l.014.143.03.357.01.143c.09 1.257.101 2.434.102 2.691v.104a44.16 44.16 0 01-.112 2.832l-.011.145-.013.143c-.068.787-.17 1.568-.323 2.142a2.76 2.76 0 01-1.946 1.953c-1.595.43-7.658.46-8.498.46h-.196c-.425 0-2.182-.007-4.025-.07l-.234-.009-.12-.005-.234-.01-.235-.01c-1.527-.067-2.98-.176-3.65-.357a2.76 2.76 0 01-1.946-1.952c-.153-.573-.254-1.356-.323-2.142l-.011-.144-.011-.143a43.19 43.19 0 01-.113-2.8v-.17c.003-.295.014-1.317.088-2.445l.01-.141.004-.072.01-.143.031-.357.014-.143c.066-.714.163-1.407.302-1.928A2.76 2.76 0 013.405 4.16c.67-.179 2.123-.289 3.65-.358l.234-.01.236-.008.118-.004.236-.01c1.308-.041 2.618-.065 3.927-.07h.266zm-2.27 4.415v6.625l5.716-3.311L9.8 8.115z" fill="#FCFCFC"/></svg>