<svg width="1800" height="468" fill="none" xmlns="http://www.w3.org/2000/svg"><path d="M296.896 178.787V0h110.276v468H296.896V278.697h-186.62V468H0V0h110.276v178.787h186.62zM913.94 468H797.139l-27.406-81.506H576.587L549.834 468H436.948L607.908 0h131.157L913.94 468zM634.009 213.624l-26.753 80.191h131.156l-26.753-80.191c-8.265-23.663-21.316-63.102-39.151-118.315-23.056 71.427-35.889 110.865-38.499 118.315zM854.53 0h396.08v99.253h-142.9V468H996.779V99.253H854.53V0zm792.1 0v99.253h-244.7v84.792h222.51v93.337h-222.51v91.365h244.04V468h-354.31V0h354.97zm123.35 311.562h-54.81l-27.4-197.191V0h110.27v114.371l-28.06 197.191zM1800 468h-114.84V354.944H1800V468z" fill="#FCFCFC"/></svg>