<svg width="62" height="62" fill="none" xmlns="http://www.w3.org/2000/svg"><g clip-path="url(#clip0_388_431)" fill="#FCFCFC"><path d="M12.44 47.148c-.398 0-1.042-.426-1.481-.988-.288-.356-.713-1.056-.37-1.714.095-.15.178-.302.274-.453l.055-.096 2.359 2.373-.042.055c-.096.15-.178.301-.274.452-.069.11-.192.288-.425.357-.027.014-.055.014-.096.014zm-1.495-2.963a7.555 7.555 0 01-.206.343c-.288.563.096 1.193.357 1.509.48.603 1.138.974 1.412.905.165-.041.247-.178.316-.274.069-.124.15-.247.233-.384l-2.112-2.099zM53.47 6.144a.68.68 0 01-.328-.083c-.014 0-.755-.466-.727-.836 0-.082.055-.192.233-.26.096-.028.164-.042.233-.07.041-.013.082-.027.137-.04l.055-.014 1.11 1.11-.15.042c-.11.027-.22.068-.33.096-.054.04-.136.055-.232.055zm-.452-1.084c-.04.014-.068.014-.096.028a2.538 2.538 0 00-.22.055c-.109.04-.109.082-.109.096-.014.205.521.603.63.658a.49.49 0 00.412.027 1.01 1.01 0 01.192-.055l-.809-.809zm-3.62 4.032l-.04-.069-.947-1.522-.22-.356.343.233c.563.37 1.111.74 1.673 1.11l.124.083-.137.068c-.233.137-.48.275-.727.412l-.069.04zm-.617-1.344c.233.37.453.727.672 1.097.178-.096.357-.206.521-.302-.397-.26-.795-.534-1.193-.795zM36.971 19.13c-.919 0-1.604-1-1.687-1.193-.301-.63-.192-1.097.384-1.632l.59-.507.069-.055 2.358 2.373-.068.068-.59.508c-.192.15-.535.425-1.028.439h-.028zm-1.521-1.26c.069.137.713 1.083 1.522 1.083h.014c.425 0 .74-.26.905-.398.165-.15.343-.287.507-.438L36.3 16.004c-.178.15-.343.301-.52.452-.508.467-.604.85-.33 1.413zM9.738 51.81l-.123-.15c-.535-.672-.74-.919-1.248-1.55l-.48-.59.603.467c.617.48.686.535 1.372 1.056l.054.04-.013.056-.124.493-.04.179zm-.754-1.22c.206.247.384.48.658.81.014-.083.041-.165.069-.261-.343-.26-.535-.398-.727-.549z"/><path d="M12.946 62L0 49.054l18.267-18.267L.425 12.946 13.371 0l17.842 17.842L48.629.425l3.963 3.963-.15.042c-.151.04-.316.096-.48.15-.042.014-.083.042-.11.055-.096.069-.124.165-.096.302.11.549 1.015 1.344 1.673 1.467l.137.028-.082.11c-.11.164.26.59.63.987.33.356.494.548.563.672.11-.041.206-.082.315-.124a4.059 4.059 0 00-.397-.438c-.192-.206-.398-.412-.549-.659-.069-.123-.096-.22-.055-.301.041-.11.151-.151.22-.179l.11-.027c.068-.028.123-.041.219-.069l.055-.013 1.412 1.412 5.568 5.568-17.417 17.416L62 48.63 49.054 61.575 31.213 43.733 12.946 62zM.26 49.054L12.946 61.74l18.267-18.266 17.841 17.841L61.74 48.63 43.898 30.787l17.43-17.416-6.788-6.788a.774.774 0 00-.165.054l-.096.028c-.041.014-.096.041-.11.068 0 .014-.013.055.042.151.137.233.315.425.52.631.165.178.343.357.48.562l.07.096-.11.042a6.53 6.53 0 00-.494.192l-.082.04-.028-.082c-.041-.11-.178-.288-.562-.699-.48-.521-.74-.85-.7-1.097-.699-.192-1.577-1.001-1.7-1.59-.055-.275.055-.412.165-.495a.343.343 0 01.15-.068c.124-.041.233-.069.343-.11L48.63.672l-17.416 17.43L13.37.261.672 12.946l17.842 17.841L.26 49.054zm10.957 6.57l-.658-.66a1.602 1.602 0 01-.275-.575l-.52-.535a.276.276 0 00.054.082l-.137.11-.603-.603a1.899 1.899 0 01-.247-.535l-.425-.425a.755.755 0 00.082.11l-.137.123-.631-.631a2 2 0 01-.343-.878l-.027-.178c-.055-.357-.042-.782.04-1.262l.028-.178.81.823-.014.041c-.028.15-.042.302-.055.439l2.619 2.633c-.891-1.084-1.92-2.331-3.305-4.073l-.027-.027.013-.042c.028-.137.069-.274.11-.425l.041-.123.11.082c.686.508 1.426 1.083 2.372 1.77a.767.767 0 00-.123-.11l-.041-.042.013-.055c.055-.15.11-.301.165-.466l.041-.123.096.082c.535.466.727.453.782.411.082-.04.096-.178.096-.288-.041-.713-1.248-2.015-1.92-2.207-.15-.042-.247-.028-.302.04-.068.097-.178.385.37 1.057l.028.04-.014.056-.164.452-.055.151-.096-.11c-1.193-1.33-1.001-2.084-.919-2.29v-.014c.165-.301.425-.438.768-.397 1.11.123 2.729 1.933 3.072 3.154.15.548.082 1.042-.178 1.261-.138.124-.412.206-.864-.027.192.137.384.288.603.439l.055.041-.028.069c-.054.15-.11.301-.15.452l-.042.124-.096-.083c-.246-.178-.48-.37-.726-.548a4.072 4.072 0 00-.124.52l.727.892.027.028-.013.04c-.028.138-.041.262-.055.385l-.014.164v.042c-.014.11-.014.219-.014.329v.22L8.16 51.508c0 .055.013.11.013.164l.028.151 2.852 2.867v.027c.041.315.151.59.302.795l-.137.11zm-.521-.769l.247.247a2.767 2.767 0 01-.069-.33l-.411-.41c.04.178.123.356.233.493zm-2.743-3.812l2.866 2.88v-.083l-2.852-2.866v-.041c.013-.137.027-.302.055-.453l-.494-.493a3.52 3.52 0 00-.014 1l.453.453v-.164l-.014-.233zm1.042 1.837c.055.179.124.33.206.467l.233.233c0-.014-.014-.041-.014-.055l-.068-.274-.357-.37zm-1.371-3.51c1.358 1.7 2.359 2.934 3.236 3.99.014-.04.014-.096.028-.15-.247-.302-.494-.59-.727-.892l-.028-.027.014-.041c.041-.22.11-.453.178-.7l.042-.123.11.082c.246.178.48.37.726.548.028-.096.055-.178.096-.274a179.928 179.928 0 01-3.62-2.66c-.014.082-.041.164-.055.247zm-.028 2.098c.055.192.138.356.234.493l.233.234c-.014-.028-.014-.055-.028-.083l-.068-.274-.37-.37zm2.496-1.001c.206.192.508.452.823.617.206.11.48.192.658.055.206-.165.247-.604.124-1.07-.357-1.248-1.961-2.921-2.921-3.03-.274-.028-.466.068-.59.301-.068.178-.22.81.782 1.975.027-.082.068-.178.096-.26-.549-.687-.494-1.057-.343-1.249.069-.096.206-.192.494-.11.74.22 1.988 1.564 2.043 2.373 0 .11 0 .37-.192.466-.192.096-.48-.027-.878-.356-.027.11-.055.192-.096.288zm2.277-.768l-3.648-3.662.027-.055c.096-.178.192-.37.288-.548l.055-.11 3.648 3.662-.027.055c-.096.192-.192.37-.288.548l-.055.11zM8.94 45.996l3.374 3.401c.069-.123.123-.26.192-.384l-3.374-3.401c-.054.123-.123.247-.192.384zm3.69 2.057c-.083 0-.179-.014-.261-.027-1.207-.275-2.55-2.236-2.674-3.045-.083-.576.11-.932.205-1.097.22-.37.453-.754.7-1.138l.055-.096 3.634 3.661-.041.055c-.247.384-.48.768-.7 1.139-.233.356-.548.548-.919.548zm-2.579-4.087c-.082.151-.26.467-.178.988.11.754 1.412 2.646 2.523 2.893.412.096.755-.055 1.015-.439.206-.342.425-.713.658-1.083l-3.387-3.4c-.22.356-.439.712-.63 1.041zm4.402 2.085l-3.634-3.662.041-.055c.137-.205.26-.411.412-.63l.055-.096 2.098 2.111c-.302-.713-.768-1.81-1.317-3.195l-.013-.04.027-.042.494-.7.068-.095c.178-.261.37-.522.563-.782l.04-.055.097.027c.507.165.987.33 1.755.576-.247-.658-.425-1.11-.754-2.015l-.014-.042.027-.04c.22-.275.426-.563.659-.851l.11-.137.054.164c.33.974.645 1.907 1.166 3.388l1.412 1.412-.04.069c-.179.233-.357.48-.536.713l-.068.082-1.413-1.412a153.72 153.72 0 01-2.893-.933l3.47 3.497-.042.069c-.164.22-.315.438-.466.658l-.069.082-2.111-2.125c.301.754.74 1.837 1.33 3.222l.013.041-.027.042c-.137.219-.288.439-.425.644l-.069.11zm-3.414-3.675l3.373 3.4c.11-.164.22-.342.33-.52-.7-1.633-1.18-2.853-1.482-3.58l-.164-.411.315.301 2.277 2.29c.123-.164.233-.342.356-.52l-3.374-3.401c-.137.191-.274.383-.397.575.672 1.674 1.207 2.908 1.48 3.58l.18.439-2.606-2.62c-.083.151-.192.302-.288.467zm1.837-2.716c1.248.412 2.03.659 2.908.933h.027l1.29 1.303c.136-.192.273-.37.424-.563l-1.33-1.357c-.507-1.427-.81-2.332-1.125-3.25-.178.219-.342.452-.52.672.342.932.52 1.385.781 2.098l.082.205-.178-.054c-.85-.275-1.371-.453-1.906-.618-.151.22-.302.425-.453.631zm5.458.165h-.055c-.74-.041-1.206-.768-1.261-.85-.425-.686-.096-1.468.22-2.208.164-.384.342-.782.219-1.002-.041-.082-.137-.137-.275-.164-.137-.027-.301.055-.452.206-.206.22-.316.52-.26.74.04.165.095.247.205.398l.041.055-.041.055c-.192.233-.37.48-.562.713l-.069.082-.068-.082c-.933-1.043-.549-1.975-.083-2.565.672-.781 1.29-.809 1.673-.685.576.178 1.002.781 1.056 1.248.055.438-.11.864-.329 1.385-.247.603-.398.973-.37 1.152a.558.558 0 00.343.384c.192.054.411-.055.617-.302.548-.686.15-1.138-.014-1.344l-.055-.055.055-.055c.206-.26.425-.507.631-.768l.069-.082.068.082c.864.974.617 1.907.398 2.373-.33.727-1.084 1.289-1.7 1.289zm-1.193-4.402c.028 0 .069 0 .096.013.192.041.33.124.398.261.15.288-.041.727-.22 1.152-.301.7-.617 1.426-.233 2.043.041.069.467.727 1.111.755.562.027 1.276-.508 1.605-1.194.205-.411.425-1.234-.288-2.098-.179.206-.343.425-.521.631.192.233.562.782-.028 1.509-.315.397-.617.425-.795.37a.677.677 0 01-.48-.521c-.041-.233.096-.576.37-1.248.206-.508.37-.905.316-1.303-.055-.411-.426-.933-.933-1.097-.48-.151-1.001.068-1.481.63-.425.522-.754 1.33 0 2.25.15-.192.301-.384.439-.563a.954.954 0 01-.192-.41c-.083-.316.096-.687.301-.906.165-.192.357-.274.535-.274zm4.882.617l-3.634-3.662.055-.068c.22-.26.439-.508.658-.768l.069-.069 2.18 2.194c-.205-.781-.52-1.975-.932-3.552l-.014-.04.027-.042c.247-.274.494-.548.755-.823l.068-.068 3.634 3.661-.054.069c-.233.26-.48.521-.713.782l-.069.068-2.194-2.208c.192.782.507 2.016.932 3.566l.014.041-.027.041c-.233.26-.467.535-.686.796l-.069.082zm-3.387-3.662l3.387 3.401c.192-.233.398-.452.59-.685-.48-1.77-.823-3.114-1.001-3.84l-.082-.316 2.523 2.537c.192-.22.398-.439.59-.658l-3.388-3.415c-.22.247-.439.48-.644.727.452 1.797.795 3.058 1 3.826l.083.33-2.523-2.538c-.178.206-.357.425-.535.631zm6.541.11l-2.03-2.043.056-.069c.48-.521.973-1.056 1.467-1.577l.069-.069.7.7-.056.068c-.247.26-.48.508-.713.768.453.343.837.26 1.097.124.453-.233.768-.81.727-1.29-.055-.575-.686-1.426-1.413-1.659-.48-.15-.932 0-1.289.44-.329.397-.356.794-.11 1.22l.042.055-.041.054c-.247.26-.494.535-.74.796l-.083.082-.069-.096c-1-1.426-.04-2.62.275-2.948.85-.823 1.837-1.056 2.797-.672 1.015.411 1.797 1.508 1.824 2.537.014.535-.233 1.371-.809 1.947a2.02 2.02 0 01-1.371.59l.274.397-.055.055-.48.521-.069.069zm-1.782-2.043l1.769 1.782c.123-.137.247-.26.37-.397l-.384-.576.178.013a1.818 1.818 0 001.413-.534c.535-.535.768-1.317.754-1.81-.027-.974-.768-1.99-1.714-2.373-.878-.357-1.81-.137-2.606.63-.288.302-1.124 1.358-.315 2.634l.617-.659c-.26-.466-.206-.932.15-1.37.522-.618 1.084-.618 1.482-.495.809.247 1.481 1.166 1.55 1.81.054.563-.316 1.207-.823 1.468-.453.233-.933.165-1.372-.206l-.068-.054.068-.07c.233-.26.48-.52.727-.78l-.439-.453c-.466.466-.918.96-1.357 1.44zm5.43-1.824l-3.634-3.662.069-.069c.274-.274.548-.562.836-.836l.069-.069 3.634 3.662-.069.069-.836.836-.069.069zm-3.373-3.662l3.387 3.401c.233-.233.466-.48.7-.713l-3.388-3.401c-.233.247-.466.48-.7.713zm4.457 1.742c-.041 0-.096 0-.137-.014-.604-.069-1.029-.535-1.152-.823-.33-.686.027-1.344.658-2.331.233-.357.507-.81.411-1.029-.04-.082-.123-.137-.274-.15-.178-.028-.425.082-.645.301-.246.233-.397.521-.37.727.014.178.082.274.178.398l.042.068-.055.055-.782.782-.069.068-.068-.068c-.905-1.056-.315-2.043.343-2.688 1.028-.946 1.81-.81 2.18-.658.549.233.85.781.85 1.179 0 .453-.26.905-.575 1.426-.412.7-.617 1.043-.617 1.22 0 .138.11.275.246.33.247.096.576-.027.892-.33.74-.726.37-1.165.192-1.37l-.055-.07.055-.054.822-.782.07-.068.068.068c.562.645.658 1.413.274 2.167-.535.96-1.714 1.646-2.482 1.646zm-.563-4.54c.028 0 .055 0 .083.014.206.041.356.124.411.26.137.302-.15.769-.425 1.208-.59.946-.933 1.55-.645 2.153.11.247.494.658 1.015.713.672.082 1.906-.59 2.414-1.564.247-.466.411-1.165-.178-1.892-.233.22-.467.439-.686.658.206.247.535.782-.26 1.55-.522.507-.933.425-1.084.37a.56.56 0 01-.37-.494c-.014-.22.178-.548.644-1.316.302-.494.549-.933.549-1.33 0-.343-.26-.81-.74-1.015-.577-.247-1.276-.028-1.99.617-.589.576-1.124 1.44-.397 2.359l.658-.659a.864.864 0 01-.164-.425c-.041-.315.192-.658.425-.877.26-.206.521-.33.74-.33zm4.17 2.016l-.769-.781.07-.069c.246-.233.48-.452.712-.686.398-.383.823-.781 1.234-1.165l-.713-.727a91.89 91.89 0 00-1.769 1.646l-.068.055-.727-.741.068-.069c.59-.548 1.18-1.11 1.77-1.645l-.631-.645c-.645.59-1.29 1.193-1.934 1.797l-.069.055-.754-.769.069-.068a180.65 180.65 0 012.976-2.743l.068-.055 3.58 3.566-.07.069c-.548.493-1.124 1.07-1.7 1.645-.411.412-.836.837-1.248 1.22l-.096.11zm-.508-.768l.521.521c.384-.37.782-.767 1.18-1.151a42.75 42.75 0 011.632-1.578l-3.32-3.318c-.904.809-1.933 1.755-2.838 2.62l.507.506c.645-.603 1.29-1.206 1.934-1.796l.069-.055.891.891-.069.07a91.592 91.592 0 00-1.769 1.645l.48.48c.59-.563 1.18-1.111 1.77-1.646l.068-.055.974.974-.069.069c-.439.397-.877.822-1.289 1.22-.247.192-.453.398-.672.603zm3.771-3.29a2.4 2.4 0 01-1.165-.316c-1.056-.604-1.673-1.838-1.564-2.592.096-.713.398-.974.59-1.152l.165-.151c.219-.178.452-.398.685-.603a37.6 37.6 0 01.905-.796l.069-.055 3.634 3.662-.068.069c-.48.41-.974.822-1.468 1.247-.576.453-1.18.686-1.783.686zm-1.988-3.95l-.028.027c-.192.164-.438.398-.534 1.042-.096.686.52 1.865 1.48 2.4.618.343 1.591.562 2.73-.356l1.399-1.194-3.388-3.4c-.26.219-.548.48-.836.74-.233.22-.467.425-.686.603l-.137.138zm6.473 1.042l-.768-.782.082-.069c.603-.493 1.22-.973 1.81-1.44l-.74-.74c-.535.425-1.084.85-1.632 1.303l-.069.055-.74-.74.082-.07c.549-.438 1.097-.877 1.618-1.288l-.63-.645a73.84 73.84 0 00-1.797 1.426l-.069.055-.754-.768.082-.068c.878-.714 1.756-1.4 2.592-2.044l.11-.082c.26-.192.507-.384.768-.576l.055-.041.055.027c.822.48 1.728 1.029 2.92 1.742a218.4 218.4 0 00-1.563-2.702l-.04-.068.068-.041c.247-.179.493-.343.727-.522l.082-.054.014-.014c.233-.165.466-.316.685-.48l.137-.096a58.232 58.232 0 012.441-1.564l.055-.04.782.795-.096.055c-.247.15-.507.315-.768.48l2.852 2.893-.096.055c-.219.137-.438.274-.658.425l-.055.041-2.852-2.866c-.274.178-.562.37-.85.562l-.055.028 2.852 2.866-.096.055c-.233.15-.452.315-.685.48l-.069.041-3.387-3.415c.713 1.234 1.398 2.414 2.331 4.06l.041.068-.068.041c-.275.192-.535.398-.81.59l-.04.041-.056-.027a575.72 575.72 0 00-4.47-2.606l3.428 3.456-.082.068c-.864.659-1.742 1.358-2.633 2.071l-.041.069zm-.508-.768l.522.52a90.715 90.715 0 012.482-1.96l-3.388-3.401c-.795.617-1.632 1.261-2.454 1.934l.507.507a73.84 73.84 0 011.796-1.426l.07-.055.89.891-.082.069c-.535.411-1.07.85-1.618 1.289l.48.48c.548-.439 1.097-.878 1.646-1.303l.068-.055.988 1.001-.083.069c-.603.466-1.22.946-1.824 1.44zm-.096-5.047c1.81 1.042 3.017 1.755 4.457 2.592.233-.178.467-.343.7-.507a366.167 366.167 0 00-2.373-4.114c-.192.137-.384.274-.59.41.782 1.345 1.413 2.456 1.674 2.908l.192.343-.302-.178a787.43 787.43 0 00-3.168-1.893 5.462 5.462 0 00-.59.44zm3.045-2.221l3.373 3.4.535-.37-3.373-3.4a5.778 5.778 0 00-.535.37zm2.276-.645l2.853 2.866c.164-.11.329-.22.493-.315l-2.852-2.866.096-.055c.26-.165.521-.33.768-.48l-.521-.521a56.23 56.23 0 00-2.29 1.467l.52.535c.289-.192.577-.384.851-.562l.082-.069zm3.73 2.537l-.04-.082c-.755-1.303-1.454-2.524-2.442-4.183l-.04-.082.081-.041c.206-.124.412-.247.617-.357l.042-.027.04.027c1.44.946 2.702 1.77 4.513 3.003l.055.042-.755-.755.11-.055a25.69 25.69 0 011.22-.59l-.726-.726c-.357.164-.74.343-1.139.548l-.054.028-.741-.74.11-.056c.37-.192.726-.37 1.083-.52l-.63-.631c-.398.178-.81.383-1.249.603l-.055.027-.768-.768.11-.054a24.91 24.91 0 011.81-.85l.055-.028 3.648 3.675-.123.055c-.563.233-1.18.521-1.824.85l-.055.028.027.013-.137.069c-.192.096-.384.206-.59.315l-.04.028-.042-.028c-.315-.22-.63-.425-.96-.644-.288.164-.59.329-.891.507.178.274.343.563.507.837l.041.082-.082.041c-.22.124-.439.26-.658.398l-.028.041zm-2.276-4.279c.946 1.591 1.618 2.77 2.345 4.032.165-.11.343-.206.507-.302a27.607 27.607 0 00-.52-.836l-.042-.082.083-.041c.342-.206.685-.398 1.014-.576l.055-.028.041.028c.316.219.631.425.96.644.137-.069.275-.15.398-.22a254.658 254.658 0 00-4.347-2.88 4.44 4.44 0 00-.494.261zm4.663 1.88l.507.52a21.938 21.938 0 011.66-.781l-3.374-3.388c-.508.22-1.056.467-1.632.768l.494.508c.438-.22.85-.425 1.248-.604l.054-.027.906.905-.124.055c-.343.15-.713.329-1.083.507l.466.48a27.08 27.08 0 011.138-.548l.055-.028 1.001 1.001-.123.055c-.357.165-.768.357-1.193.576z"/><path d="M19.091 13.124l-2.29 12.329-4.58-4.58 1.727-7.57-2.194.054-3.538 3.51-3.607-3.606L16.568 1.303l3.62 3.634-2.44 2.4c-1.14 1.138-.81.768-1.88 1.783l7.666-.837 4.54 4.54-8.983.301zm7.626 22.244l-8.983-8.983 11.959-11.958 3.675 3.675-8.832 8.832 5.308 5.307-3.127 3.127zm31.473 7.557c3.661 3.661 3.812 8.242.082 11.972-3.977 3.977-8.201 3.826-12.11-.083l-5.28-5.28 11.96-11.958 5.348 5.349zM47.507 50.11l1.44 1.44c1.796 1.796 3.812 1.563 5.608-.234 2.03-2.03 1.852-4.169-.027-6.047l-1.097-1.098-5.924 5.939zm-37.22 3.99c-.151 0-.522 0 1.631 2.112 2.167 2.112 2.195 1.578 2.181 1.454-.027-.233-.343-.658-.933-1.303-.11.014-.233.014-.329.014.549.59.549.7.508.768-.083.014-.247.027-1.193-.864-.014-.014-1.413-1.344-1.303-1.508 0 0 .15-.151.987.617.11 0 .22 0 .33-.014-1.043-1.001-1.715-1.262-1.88-1.275zm2.811 1.618l-.974-.973c.123-.028.26-.041.384-.083.22-.04.411.028.672.26 0 0 .562.48.411.66-.04.04-.096.054-.137.068-.11.027-.233.04-.356.068zm-1.07-1.687a8.216 8.216 0 01-.864.151l3.51 3.525c.124-.014.248-.028.371-.055l-1.371-1.385c.11-.014.233-.041.343-.069.096-.013.26-.04.548.165.466.329.81.782 1.262 1.11.15-.04.301-.082.452-.136-.15-.083-.342-.247-.768-.659-.562-.534-.932-.836-1.261-.877.096-.48-1.385-1.948-2.222-1.77zm2.563-.931c-.59.274-1.152.493-1.673.672l3.51 3.524a18.685 18.685 0 001.688-.672l-.645-.645c-.425.193-.837.37-1.234.522l-.864-.864c.356-.138.727-.288 1.11-.453l-.603-.603c-.384.178-.754.329-1.11.452l-.77-.768a16.39 16.39 0 001.207-.507l-.617-.658zm3.199 1.672c-.453-.685-.508-.781-.96-1.494.548.383 1.097.754 1.645 1.138-.233.123-.452.247-.685.356zm-1.523-2.51c-.192.11-.397.206-.576.302.796 1.248 1.536 2.4 2.579 3.991.178-.082.356-.164.548-.26-.192-.302-.384-.59-.576-.892.316-.15.631-.315.96-.493.33.219.658.452.987.671.206-.11.412-.233.618-.356a209.174 209.174 0 01-4.54-2.962zm2.781-1.645c-.809.521-1.59.988-2.317 1.385l.658.658c.274-.15.548-.301.823-.466l2.852 2.866.617-.37-2.852-2.866c.288-.178.576-.357.877-.549l-.658-.658zm.798-.521c-.22.15-.44.288-.659.425l3.511 3.524c.22-.137.44-.288.659-.425l-3.511-3.524zm2.974-2.056c-.248.177-.494.356-.741.534.493.864.973 1.687 1.741 2.99-.59-.37-1.673-1.043-3.168-1.989-.233.165-.466.315-.699.466 1.495.947 2.66 1.687 4.526 2.853.26-.178.52-.357.781-.549a237.779 237.779 0 01-2.44-4.306zm2.621-2.003c-.864.672-1.7 1.317-2.523 1.92l3.51 3.524a85.05 85.05 0 002.565-1.947l-.644-.644c-.617.493-1.235.96-1.838 1.412l-.864-.864a107.12 107.12 0 001.66-1.262l-.604-.603c-.562.439-1.11.864-1.66 1.262l-.767-.768c.59-.44 1.193-.905 1.81-1.385l-.645-.645zm5.197 1.015l-2.222-2.235c.192-.151.384-.316.576-.48 1.523-1.166 2.784.754 2.73 1.398-.028.412-.343.686-.508.837-.192.165-.384.33-.576.48zm-2.194-3.442c-.48.411-.96.795-1.44 1.193l3.51 3.524c.48-.384.96-.781 1.44-1.193 2.14-1.947-.438-4.086-1.755-4.182-.878-.042-1.522.466-1.755.658zm4.867-4.279c-.932.864-1.865 1.687-2.784 2.496l3.511 3.524c.933-.809 1.865-1.659 2.825-2.523l-.644-.645a114.57 114.57 0 01-2.016 1.824l-.864-.863c.603-.535 1.206-1.084 1.824-1.633l-.604-.603c-.603.562-1.22 1.097-1.824 1.632l-.768-.768c.659-.576 1.317-1.18 1.975-1.783l-.63-.658zm14.087-14.839c-1.33 1.715 0 2.894.781 2.825.357-.027.672-.233 1.248-.603.453-.288.755-.48.92-.466.342.027.753.576.191 1.248-.63.768-1.138.315-1.344.137-.22.26-.439.521-.672.782 1.646 1.48 3.154-.686 3.14-1.728-.013-.864-.726-1.344-.74-1.358-.658-.425-1.165-.11-2.016.466-.452.316-1.028.7-1.193.028-.096-.412.425-1.152.974-1.043.137.028.288.151.343.192.205-.247.397-.493.59-.727-.769-.671-1.523-.603-2.222.247zm3.537-4.347c-.192.261-.397.535-.603.81.26.713.466 1.289.795 2.208-.809-.247-1.11-.343-2.03-.618l-.699.864c.892.233 1.81.48 3.182.864l1.371 1.372.576-.74-1.344-1.358c-.37-.974-.699-1.907-1.248-3.402zm2.071-2.867l-.453.659 2.345 2.358c-.603-.205-1.728-.576-3.277-1.056-.178.247-.357.48-.535.727l3.51 3.525c.179-.233.344-.467.508-.686l-2.345-2.372c.672.205 1.797.562 3.291 1.055.165-.233.316-.452.467-.671l-3.511-3.539zm3.576 1.825l-2.221-2.235c.096-.165.205-.315.301-.466.796-1.111 2.304.85 2.387 1.55a.96.96 0 01-.165.685c-.096.151-.206.302-.302.466zm-2.523-3.428c-.247.398-.507.795-.782 1.193l3.511 3.524c.274-.41.535-.809.782-1.193 1.07-1.92-1.879-4.388-2.88-4.059-.343.096-.562.425-.631.535z"/><path d="M55.376 13.453c-.11.192-.22.384-.33.59l3.512 3.524c.11-.205.219-.397.329-.59l-3.511-3.524z"/><path d="M56.064 11.902c-.686 1.742 2.249 4.471 3.29 4.074.015 0 1.4-.604-.589-2.853-.068.165-.137.33-.22.494 1.043 1.22.412 1.55.165 1.536-.891-.083-2.578-2.18-1.906-2.716.247-.192.631.11.768.22.082-.165.151-.33.22-.494-1.207-1.07-1.632-.48-1.728-.26zm2.976.55c-.398-.535-.81-1.056-1.207-1.591.466.356.74.562 1.399 1.042a8.71 8.71 0 01-.192.549zm-1.99-2.688c-.055.15-.096.301-.164.466.85 1.152 1.824 2.482 3.181 4.375.069-.165.138-.343.206-.494-.233-.316-.48-.645-.713-.96.096-.26.192-.521.26-.768.275.206.549.425.823.63.041-.15.083-.3.11-.438-1.11-.878-2.18-1.687-3.703-2.811zm.369-1.796c-.014.425-.11.891-.247 1.412l.658.659c.055-.192.096-.37.137-.549l2.853 2.866c.027-.137.055-.26.068-.384l-2.852-2.866c.027-.165.041-.33.041-.48l-.658-.658zm-.106-1.098c.095.288.137.617.123.988l3.51 3.524c.014-.384-.027-.713-.136-1.001l-.645-.645c.069.206.11.425.123.686l-.864-.864a2.612 2.612 0 00-.11-.617l-.603-.604c.055.192.096.398.11.618l-.768-.768a2.542 2.542 0 00-.123-.672l-.617-.645z"/><path d="M54.294 5.32c.123-.027.26-.054.37-.068-.11-.137-.452-.535-.301-.644.356-.261 2.495 1.892 2.523 2.29 0 0-.082.425-1.248-.659-.123.014-.247.042-.384.069 1.797 1.673 2.331 1.303 2.331 1.29.302-.261-1.056-1.605-1.645-2.181-1.015-.96-1.742-1.468-2.18-1.481-.261.04-.344.425.534 1.385zm-1.249-.37l.494.494.466.467c.027-.014.055-.014.068-.028l-.068.028.548.548.7.7.685.685a6.15 6.15 0 01.48-.123l-3.51-3.525-.494.124.63.63zM46.421 33.2c-.247.261-.493.535-.74.796l-3.511-3.524c.26-.275.521-.563.782-.837 1 .22 1.824.398 2.482.549l-1.591-1.591-16.374 7.542 3.716 3.717 1.865-.905.425-.206 1.687 1.687.905.905.74.74.22.22.302.301-.192.384-.919 1.893 3.717 3.716 7.556-16.36-.425-.425-.398-.398c-.686-.15-1.563-.343-2.592-.562l2.345 2.359zm-7.542 7.721c-.494.48-1.152.81-1.824.7a1.938 1.938 0 01-1.001-.508c.082-.082.178-.164.26-.246l.562-.521c.206.178.672.576 1.413-.055l.041-.041c.823-.727.33-1.276.055-1.303-.206-.028-.411.068-.892.329-.082.04-.178.096-.274.15-.685.37-1.124.604-1.59.577a.762.762 0 01-.234-.041c-.356-.11-.781-.44-.919-.92-.137-.466 0-1.096.741-1.837.082-.082.178-.164.288-.247.453-.356 1.029-.603 1.632-.411.22.068.439.192.658.384l-.137.137c-.22.206-.425.411-.645.617a.812.812 0 00-.438-.192.854.854 0 00-.494.123c-.37.206-.7.631-.658.933.11.686.795.288 1.344-.027.027-.014.04-.028.068-.042.604-.342 1.125-.63 1.605-.658.206-.014.398.014.59.11.137.068.342.233.493.439.124.178.233.397.26.644.056.563-.315 1.33-.904 1.907zm1.974-2.084a1.493 1.493 0 01-.15.137l-.988-.987-1.865-1.88-.658-.657c.274-.275.562-.549.836-.823l.92.919 1.343 1.357.919.933.315.329c-.205.22-.438.453-.672.672zm4.005-4.06c-.137-.095-.33-.219-.48-.315.096 1.536-1.358 2.332-2.153 2.4-.206.014-.412 0-.631-.041a2.719 2.719 0 01-1.029-.439 2.82 2.82 0 01-.987-1.165 2.398 2.398 0 01-.192-1.33c.069-.508.315-1.043.782-1.564.315-.33 1.44-1.317 2.784-.384l-.768.809c-.453-.274-.892-.22-1.303.165a1.69 1.69 0 00-.439.644c-.123.384-.041.782.15 1.138.138.247.316.467.536.659.26.233.562.397.836.466.069.014.124.027.192.027.892.069 2.057-1.07 1.152-2.153-.274.288-.439.467-.727.755l-.082-.083-.48-.493c.398-.412.74-.768 1.11-1.166.097-.11.207-.22.316-.33l1.893 1.907c-.137.15-.302.315-.48.494z"/><path d="M45.035 27.317l-.7.782 2.346 2.359c-.192-.041-.425-.096-.686-.151-.178-.041-.37-.082-.562-.123l.398.397.823.823c.205.041.384.082.562.123.247.055.452.096.603.138l.727-.81-3.51-3.538z"/></g><defs><clipPath id="clip0_388_431"><path fill="#fff" d="M0 0h62v62H0z"/></clipPath></defs></svg>