<svg width="856" height="123" fill="none" xmlns="http://www.w3.org/2000/svg"><path d="M49.335.251c16.472 0 29.43 5.49 38.873 16.472 9.554 10.871 14.33 25.75 14.33 44.638 0 18.887-4.721 33.822-14.165 44.803-9.334 10.871-22.182 16.307-38.544 16.307-14.166 0-25.586-3.789-34.26-11.366C6.892 103.419 1.951 92.822.743 79.315h20.26c1.098 8.016 4.173 14.276 9.224 18.778 5.051 4.502 11.585 6.753 19.601 6.753 8.895 0 16.087-3.075 21.578-9.224 5.6-6.15 9.005-14.715 10.212-25.696H35.17v-17.13h46.45C80.412 41.815 76.952 33.249 71.242 27.1c-5.6-6.15-12.903-9.224-21.907-9.224-7.906 0-14.385 2.25-19.437 6.753-4.941 4.393-7.851 10.487-8.73 18.284H1.239c.549-12.628 5.16-22.896 13.836-30.802C23.749 4.204 35.169.25 49.335.25zm152.844 2.47v17.131h-38.544V120h-19.601V19.852H105.49V2.722h96.689zm17.492 14.002C229.444 5.742 242.731.25 259.532.25s30.034 5.49 39.697 16.472c9.773 10.871 14.66 25.75 14.66 44.638 0 18.887-4.887 33.822-14.66 44.803-9.663 10.871-22.896 16.307-39.697 16.307-16.801 0-30.088-5.436-39.861-16.307-9.663-10.981-14.495-25.916-14.495-44.803 0-18.887 4.832-33.767 14.495-44.638zM284.24 29.57c-6.04-7.797-14.276-11.695-24.708-11.695-10.432 0-18.722 3.898-24.872 11.695-6.039 7.796-9.059 18.393-9.059 31.79 0 13.397 3.02 23.994 9.059 31.79 6.15 7.797 14.44 11.695 24.872 11.695s18.668-3.898 24.708-11.695c6.149-7.796 9.224-18.393 9.224-31.79 0-13.397-3.075-23.994-9.224-31.79zM421.564 2.72V120h-19.766V19.852h-37.555c-.878 28.442-2.745 49.91-5.6 64.404-2.746 14.496-6.589 24.214-11.53 29.155-4.832 4.942-11.805 7.413-20.919 7.413-3.075 0-5.436-.275-7.083-.824v-16.307c1.098.22 2.086.33 2.965.33 3.514 0 6.369-.769 8.565-2.307 2.196-1.537 4.173-4.282 5.93-8.235 1.867-3.953 3.294-9.828 4.282-17.625 1.099-7.906 1.977-17.625 2.636-29.155.769-11.53 1.372-26.19 1.812-43.98h76.263zm35.53 14.002C466.867 5.742 480.155.25 496.956.25c16.801 0 30.033 5.49 39.696 16.472 9.773 10.871 14.66 25.75 14.66 44.638 0 18.887-4.887 33.822-14.66 44.803-9.663 10.871-22.895 16.307-39.696 16.307s-30.089-5.436-39.862-16.307c-9.663-10.981-14.495-25.916-14.495-44.803 0-18.887 4.832-33.767 14.495-44.638zm64.569 12.848c-6.039-7.797-14.275-11.695-24.707-11.695s-18.723 3.898-24.873 11.695c-6.039 7.796-9.059 18.393-9.059 31.79 0 13.397 3.02 23.994 9.059 31.79 6.15 7.797 14.441 11.695 24.873 11.695s18.668-3.898 24.707-11.695c6.15-7.796 9.224-18.393 9.224-31.79 0-13.397-3.074-23.994-9.224-31.79zM592.2 120h-19.766V2.722h65.887v17.13H592.2V120zM651.897 2.722h19.107v46.12c0 17.79-.329 35.58-.988 53.369h.329c7.687-16.252 15.978-33.053 24.873-50.404l25.366-49.085h28.331V120h-18.942V73.88c0-15.813.274-33.603.823-53.369h-.329c-7.687 16.252-15.978 33.053-24.872 50.404L680.393 120h-28.496V2.722zm160.372 0h42.991V120h-19.601V73.715h-23.39l-3.788-.165L785.75 120h-21.578l26.025-49.91c-13.177-5.38-19.766-16.086-19.766-32.119 0-11.2 3.514-19.876 10.542-26.025 7.028-6.15 17.46-9.224 31.296-9.224zm23.39 55.015V19.03h-21.248c-16.033 0-24.049 6.314-24.049 18.942-.11 6.15 1.702 10.981 5.436 14.495 3.843 3.514 9.663 5.271 17.46 5.271h22.401z" fill="#FCFCFC"/></svg>