<svg width="863" height="152" fill="none" xmlns="http://www.w3.org/2000/svg"><path d="M93.89 31.722V149H74.287V96.62H20.261V149H.495V31.722h19.766V79.49h54.027V31.722h19.601zm107.582 0v17.13h-58.639v31.79h55.015V97.61h-55.015v34.26h60.286V149h-80.052V31.722h78.405zm141.404 0v16.636h-59.133v29.65h26.025c12.628 0 22.456 3.184 29.484 9.553 7.138 6.369 10.707 15.044 10.707 26.025 0 10.981-3.569 19.656-10.707 26.025-7.028 6.259-16.856 9.389-29.484 9.389h-45.791V31.722h78.899zM305.98 94.644h-22.237v37.72h22.237c7.686 0 13.561-1.593 17.624-4.777 4.063-3.294 6.095-7.961 6.095-14.001 0-6.149-2.032-10.816-6.095-14-4.063-3.295-9.938-4.942-17.624-4.942zm70.59-48.921c9.773-10.981 23.06-16.472 39.861-16.472s30.033 5.49 39.697 16.472c9.773 10.871 14.659 25.75 14.659 44.638 0 18.887-4.886 33.822-14.659 44.803-9.664 10.871-22.896 16.307-39.697 16.307-16.801 0-30.088-5.436-39.861-16.307-9.664-10.981-14.495-25.916-14.495-44.803 0-18.888 4.831-33.767 14.495-44.638zm64.568 12.848c-6.039-7.797-14.275-11.695-24.707-11.695s-18.723 3.898-24.872 11.695c-6.04 7.796-9.06 18.393-9.06 31.79 0 13.397 3.02 23.994 9.06 31.79 6.149 7.797 14.44 11.695 24.872 11.695s18.668-3.898 24.707-11.695c6.15-7.796 9.225-18.393 9.225-31.79 0-13.397-3.075-23.994-9.225-31.79zm50.772-26.85h19.107v46.121c0 17.79-.33 35.579-.988 53.369h.329c7.687-16.252 15.977-33.054 24.872-50.404l25.366-49.085h28.332V149h-18.943v-46.121c0-15.812.275-33.602.824-53.368h-.33c-7.686 16.252-15.977 33.053-24.872 50.404L520.406 149H491.91V31.722zM553.349.427h13.342c-.549 7.687-3.239 13.671-8.071 17.954-4.722 4.173-11.146 6.26-19.272 6.26-8.016 0-14.44-2.087-19.272-6.26-4.722-4.283-7.357-10.267-7.906-17.954h13.177c.879 7.906 5.546 11.86 14.001 11.86 8.456 0 13.122-3.954 14.001-11.86zm109.31 28.825c14.056 0 25.366 3.953 33.931 11.86 8.566 7.906 13.123 18.174 13.672 30.802h-19.931c-.878-7.797-3.788-13.891-8.73-18.284-4.831-4.502-11.146-6.753-18.942-6.753-9.993 0-17.844 3.898-23.555 11.695-5.71 7.686-8.565 18.283-8.565 31.79 0 13.507 2.8 24.158 8.401 31.955 5.71 7.687 13.452 11.53 23.225 11.53 7.796 0 14.165-2.251 19.107-6.753 5.051-4.503 8.126-10.762 9.224-18.778h20.26c-1.208 13.507-6.094 24.104-14.66 31.79-8.565 7.577-19.875 11.366-33.931 11.366-16.142 0-28.881-5.436-38.214-16.307-9.225-10.871-13.837-25.806-13.837-44.803 0-18.997 4.667-33.932 14.001-44.803 9.444-10.871 22.292-16.307 38.544-16.307zm105.761 2.47h42.991V149h-19.602v-46.285H768.42l-3.789-.165L741.9 149h-21.577l26.025-49.91c-13.178-5.38-19.766-16.086-19.766-32.119 0-11.2 3.514-19.876 10.542-26.025 7.027-6.15 17.46-9.224 31.296-9.224zm23.389 55.016V48.03h-21.248c-16.032 0-24.049 6.314-24.049 18.942-.109 6.15 1.702 10.981 5.436 14.495 3.843 3.514 9.663 5.271 17.46 5.271h22.401zM861.4 129.4V149h-21.249v-19.601H861.4zm.988-97.677l-4.283 86.476h-14.66l-4.282-86.476h23.225z" fill="#FCFCFC"/></svg>