<svg width="24" height="24" fill="none" xmlns="http://www.w3.org/2000/svg"><path d="M1.6 16.465c.048 0 .087-.038.095-.093l.258-2.022-.258-2.068c-.008-.055-.047-.093-.096-.093-.048 0-.089.04-.095.093l-.227 2.068.227 2.022c.006.054.047.093.095.093zm-.851-.768c.047 0 .084-.037.092-.09l.2-1.257-.2-1.28c-.007-.052-.045-.089-.092-.089-.048 0-.086.037-.092.09L.488 14.35l.169 1.257c.006.053.044.09.092.09zm1.753 1.13c.06 0 .108-.047.115-.112l.245-2.365-.244-2.453c-.008-.066-.056-.113-.116-.113-.06 0-.11.047-.115.113l-.215 2.453.215 2.364c.006.066.054.113.115.113zm.915.095c.07 0 .128-.057.134-.132l.231-2.439-.23-2.521c-.007-.076-.065-.133-.135-.133a.138.138 0 00-.136.133l-.203 2.521.203 2.439a.138.138 0 00.135.132zm.922.04a.158.158 0 00.154-.153l.217-2.459-.217-2.339a.158.158 0 00-.154-.152.157.157 0 00-.155.153l-.192 2.338.192 2.46a.157.157 0 00.155.152zm.926.02a.179.179 0 00.174-.173l.203-2.458-.203-3.805a.179.179 0 00-.174-.172.178.178 0 00-.175.173l-.18 3.804.18 2.459a.178.178 0 00.175.172zm.918.018a.197.197 0 00.194-.192l.19-2.443-.19-4.675a.197.197 0 00-.194-.192.197.197 0 00-.194.192l-.169 4.675.169 2.443c.004.108.09.192.194.192zm.957-.018a.216.216 0 00.214-.212l.176-2.417-.176-5.065a.217.217 0 00-.214-.212.216.216 0 00-.214.212l-.156 5.065.156 2.418a.216.216 0 00.214.211zm.95.004a.235.235 0 00.233-.231l.163-2.402-.163-5.236a.235.235 0 00-.234-.232.235.235 0 00-.233.232l-.145 5.236.145 2.403c.004.129.106.23.233.23zm.957-.001a.255.255 0 00.253-.252l.15-2.38-.15-5.102A.254.254 0 009.047 9c-.139 0-.25.11-.253.252l-.134 5.102.134 2.38c.003.14.114.25.253.25zm.961.003c.15 0 .269-.119.272-.271l.137-2.363-.137-4.917a.273.273 0 00-.545 0l-.122 4.916.122 2.365c.003.151.123.27.273.27zm.681-.274a.293.293 0 00.292.28.297.297 0 00.292-.29l.012-.234.111-2.115-.123-5.85a.298.298 0 00-.292-.292.298.298 0 00-.292.291l-.002.056-.109 5.793.11 2.351.001.01zm.947-.044c.002.17.142.309.312.309s.309-.14.311-.311l.14-2.313-.14-6.38a.316.316 0 00-.311-.311.316.316 0 00-.312.311l-.001.032-.127 6.348.065 1.173.063 1.143zm1.194.315h7.85a2.82 2.82 0 002.832-2.818 2.832 2.832 0 00-3.927-2.612 4.998 4.998 0 00-6.789-4.217c-.214.083-.27.168-.273.333v8.99a.333.333 0 00.306.324z" fill="#FCFCFC"/></svg>