<svg width="24" height="24" fill="none" xmlns="http://www.w3.org/2000/svg"><path d="M6.964 4.725A9.001 9.001 0 0111.472 3v2.703A6.122 6.122 0 008.55 6.89a6.302 6.302 0 00-2.254 3.22 6.283 6.283 0 00.095 3.93 6.352 6.352 0 002.408 3.106A6.297 6.297 0 0012.58 18.2a6.3 6.3 0 003.668-1.4 6.25 6.25 0 002.102-3.315c.229-.902.248-1.86.076-2.76L20.7 8.903v-.02a9.022 9.022 0 01.267 5.272 8.953 8.953 0 01-3.018 4.735 9.044 9.044 0 01-5.235 2.013 8.83 8.83 0 01-5.388-1.514 9.055 9.055 0 01-3.438-4.429 8.963 8.963 0 01-.134-5.616 9.058 9.058 0 013.21-4.62z" fill="#FCFCFC"/><path d="M18.982 5.99v.02l-1.51 2.415a6.11 6.11 0 00-2.159-1.974v5.482a3.038 3.038 0 11-6.075 0 3.038 3.038 0 014.738-2.53V3.115a8.897 8.897 0 015.006 2.876z" fill="#767676"/></svg>